<svg xmlns="http://www.w3.org/2000/svg" fill="none" viewBox="0 0 32 32"><path stroke-width="1.5" d="M14.8 2.5c.4-1.1 2-1.1 2.4 0a3 3 0 0 0 4.5 1.2c1-.8 2.3 0 2.1 1.2-.3 2 1.4 3.6 3.3 3.3 1.2-.2 2 1.2 1.2 2.1a2.8 2.8 0 0 0 1.2 4.5c1.1.4 1.1 2 0 2.4a3 3 0 0 0-1.2 4.5c.8 1 0 2.3-1.2 2.1-2-.3-3.6 1.4-3.3 3.3.2 1.2-1.2 2-2.1 1.2a2.8 2.8 0 0 0-4.5 1.2c-.4 1.1-2 1.1-2.4 0a3 3 0 0 0-4.5-1.2c-1 .8-2.3 0-2.1-1.2.3-2-1.4-3.6-3.3-3.3-1.2.2-2-1.2-1.2-2.1a3 3 0 0 0-1.2-4.5c-1.1-.4-1.1-2 0-2.4a3 3 0 0 0 1.2-4.5c-.8-1 0-2.3 1.2-2.1 2 .3 3.6-1.4 3.3-3.3-.2-1.2 1.2-2 2.1-1.2a3 3 0 0 0 4.5-1.2Z"/></svg>
