<svg xmlns="http://www.w3.org/2000/svg" fill="none" viewBox="0 0 28 28"><path fill="#CFCFCF" fill-rule="evenodd" d="M14 0a1.4 1.4 0 0 1 1.4 1.4v1.4a1.4 1.4 0 0 1-2.8 0V1.4A1.4 1.4 0 0 1 14 0ZM4.1 4.1a1.4 1.4 0 0 1 2 0l1 1a1.4 1.4 0 1 1-2 2L4 6a1.4 1.4 0 0 1 0-2Zm19.8 0a1.4 1.4 0 0 1 0 2l-1 1a1.4 1.4 0 0 1-2-2l1-1a1.4 1.4 0 0 1 2 0ZM7 14a7 7 0 1 1 14 0 7 7 0 0 1-14 0Zm-7 0a1.4 1.4 0 0 1 1.4-1.4h1.4a1.4 1.4 0 1 1 0 2.8H1.4A1.4 1.4 0 0 1 0 14Zm23.8 0a1.4 1.4 0 0 1 1.4-1.4h1.4a1.4 1.4 0 1 1 0 2.8h-1.4a1.4 1.4 0 0 1-1.4-1.4Zm-2.9 7a1.4 1.4 0 0 1 2 0l1 1a1.4 1.4 0 0 1-2 1.9l-1-1a1.4 1.4 0 0 1 0-2ZM5.1 21a1.4 1.4 0 1 1 2 2l-1 .9a1.4 1.4 0 0 1-2-2l1-1Zm8.9 2.8a1.4 1.4 0 0 1 1.4 1.4v1.4a1.4 1.4 0 1 1-2.8 0v-1.4a1.4 1.4 0 0 1 1.4-1.4Z" clip-rule="evenodd"/></svg>
